<?xml version="1.0" encoding="iso-8859-1"?>
<!-- Uploaded to: SVG Repo, www.svgrepo.com, Generator: SVG Repo Mixer Tools -->
<svg height="800px" width="800px" version="1.1" id="Layer_1" xmlns="http://www.w3.org/2000/svg" xmlns:xlink="http://www.w3.org/1999/xlink" 
	 viewBox="0 0 511.932 511.932" xml:space="preserve">
<path style="fill:#E2E3E5;" d="M320.505,393.78c-19.567,28.254-61.329,28.254-80.896,0l-83.635-120.789
	c-46.319-61.747-40.175-164.523,14.404-219.102c60.57-60.57,158.771-60.578,219.341-0.017l0.017,0.017
	c54.579,54.579,60.723,157.355,14.404,219.102L320.505,393.78L320.505,393.78z"/>
<path style="fill:#F0F0F0;" d="M146.063,375.393c-81.126,10.078-137.566,38.101-137.566,64c0,35.345,105.062,64,234.667,64
	s234.667-28.655,234.667-64c0-25.899-56.431-53.922-137.557-64"/>
<path style="fill:#E0E0E0;" d="M358.367,375.393h-18.099c81.135,10.078,137.566,38.101,137.566,64
	c0,34.773-101.726,63.053-228.437,63.957c2.193,0.017,4.369,0.043,6.571,0.043c136.67,0,247.467-28.655,247.467-64
	C503.434,413.495,443.922,385.471,358.367,375.393"/>
<path style="fill:#FFFFFF;" d="M153.567,375.393h18.099c-81.135,10.078-137.566,38.101-137.566,64
	c0,34.773,101.726,63.053,228.437,63.957c-2.193,0.017-4.369,0.043-6.571,0.043c-136.67,0-247.467-28.655-247.467-64
	C8.5,413.495,68.012,385.471,153.567,375.393"/>
<path style="fill:#CCCCCC;" d="M254.458,452.193l-124.083-179.2C84.056,211.246,90.2,108.471,144.779,53.892
	c60.578-60.578,158.78-60.578,219.358,0c54.579,54.579,60.723,157.355,14.404,219.102L254.458,452.193z"/>
<path style="fill:#E2E3E5;" d="M252.949,452.193l-116.813-179.2C89.826,211.246,95.97,108.47,150.549,53.891l0,0
	c60.57-60.578,124.399-60.578,184.969,0c54.579,54.579,60.723,157.355,14.413,219.102L252.949,452.193z"/>
<path style="fill:#E0E0E0;" d="M307.167,162.06c0,28.279-22.921,51.2-51.2,51.2s-51.2-22.921-51.2-51.2s22.921-51.2,51.2-51.2
	S307.167,133.781,307.167,162.06"/>
<path style="fill:#F0F0F0;" d="M278.549,162.06c0,28.279-17.195,51.2-38.4,51.2s-38.4-22.921-38.4-51.2s17.195-51.2,38.4-51.2
	C261.355,110.86,278.549,133.781,278.549,162.06"/>
<path style="fill:#FFFFFF;" d="M144.78,53.889L144.78,53.889C176.695,21.974,219.054,7.05,260.859,8.765
	c-29.423,1.545-58.803,16.469-87.458,45.124l0,0c-54.588,54.579-60.723,157.355-14.413,219.102l96.316,177.98l-0.845,1.22
	l-124.083-179.2C84.057,211.244,90.201,108.468,144.78,53.889"/>
<g>
	<path style="fill:#B6B6B6;" d="M255.967,221.76c-32.919,0-59.7-26.781-59.7-59.7s26.781-59.7,59.7-59.7s59.7,26.781,59.7,59.7
		S288.886,221.76,255.967,221.76z M255.967,119.36c-23.545,0-42.7,19.155-42.7,42.7s19.155,42.7,42.7,42.7s42.7-19.155,42.7-42.7
		S279.512,119.36,255.967,119.36z"/>
	<path style="fill:#B6B6B6;" d="M254.458,460.693c-2.789,0-5.4-1.368-6.988-3.661l-123.993-179.07
		C74.49,212.501,81.619,105.031,138.769,47.881c63.791-63.791,167.586-63.791,231.378,0c57.15,57.15,64.278,164.621,15.291,230.082
		L261.446,457.032C259.858,459.325,257.247,460.693,254.458,460.693z M254.458,16.958c-39.159,0-75.976,15.251-103.668,42.944
		c-51.634,51.634-57.997,148.826-13.615,207.991c0.065,0.086,0.128,0.173,0.189,0.262l117.095,169.107l117.095-169.107
		c0.062-0.089,0.124-0.176,0.188-0.262c44.382-59.164,38.02-156.356-13.615-207.991C330.434,32.209,293.616,16.958,254.458,16.958z"
		/>
	<path style="fill:#B6B6B6;" d="M255.967,511.894c-66.797,0-129.697-6.754-177.113-19.017C42.881,483.573,0,466.743,0,439.394
		c0-16.509,15.721-32.306,45.463-45.685c27.463-12.354,65.501-21.855,107.109-26.757c4.66-0.554,8.886,2.784,9.436,7.447
		c0.549,4.662-2.785,8.887-7.447,9.436C64.805,394.408,17,422.895,17,439.394c0,9.192,17.314,24.405,66.11,37.025
		c46.066,11.913,107.455,18.475,172.856,18.475c65.402,0,126.79-6.562,172.856-18.475c48.796-12.62,66.11-27.833,66.11-37.025
		c0-16.499-47.805-44.985-137.561-55.559c-4.662-0.549-7.997-4.773-7.447-9.436c0.549-4.662,4.773-8.003,9.436-7.447
		c41.607,4.901,79.646,14.403,107.109,26.757c29.742,13.379,45.463,29.176,45.463,45.685c0,27.35-42.881,44.18-78.854,53.483
		C385.663,505.14,322.764,511.894,255.967,511.894z"/>
</g>
</svg>