<?xml version="1.0" encoding="iso-8859-1"?>
<!-- Uploaded to: SVG Repo, www.svgrepo.com, Generator: SVG Repo Mixer Tools -->
<svg version="1.1" id="Layer_1" xmlns="http://www.w3.org/2000/svg" xmlns:xlink="http://www.w3.org/1999/xlink" 
	 viewBox="0 0 495 495" xml:space="preserve">
<g>
	<path style="fill:#FFE477;" d="M237.875,155H270v-40h-32.125c1.388,6.451,2.125,13.14,2.125,20S239.263,148.549,237.875,155z"/>
	<path style="fill:#FFE477;" d="M50,135c0-6.86,0.737-13.549,2.125-20H20v40h32.125C50.737,148.549,50,141.86,50,135z"/>
	<path style="fill:#FFE477;" d="M224.79,83.494l22.741-22.74L219.247,32.47l-22.741,22.741
		C207.81,62.533,217.467,72.19,224.79,83.494z"/>
	<path style="fill:#FFE477;" d="M65.21,186.506l-22.741,22.74l28.283,28.284l22.741-22.741
		C82.19,207.467,72.533,197.81,65.21,186.506z"/>
	<path style="fill:#FFE477;" d="M165,42.125V10h-40v32.125C131.451,40.737,138.141,40,145,40S158.549,40.737,165,42.125z"/>
	<path style="fill:#FFE477;" d="M125,227.875V260h40v-32.125c-6.451,1.388-13.141,2.125-20,2.125S131.451,229.263,125,227.875z"/>
	<path style="fill:#FFE477;" d="M196.506,214.789l22.741,22.741l28.283-28.284l-22.741-22.74
		C217.467,197.81,207.81,207.467,196.506,214.789z"/>
	<path style="fill:#FFE477;" d="M93.494,55.211L70.753,32.47L42.47,60.754l22.741,22.74C72.533,72.19,82.19,62.533,93.494,55.211z"
		/>
	<path style="fill:#FFD422;" d="M145,230c6.859,0,13.549-0.737,20-2.125c11.389-2.45,22.026-6.945,31.506-13.085
		c11.304-7.323,20.961-16.979,28.284-28.284c6.14-9.479,10.635-20.116,13.085-31.506c1.388-6.451,2.125-13.14,2.125-20
		s-0.737-13.549-2.125-20c-2.45-11.389-6.945-22.026-13.085-31.506c-7.323-11.304-16.979-20.961-28.284-28.284
		c-9.479-6.14-20.117-10.635-31.506-13.085C158.549,40.737,151.859,40,145,40V230z"/>
	<path style="fill:#FFDE55;" d="M52.125,155c2.45,11.389,6.945,22.026,13.085,31.506c7.323,11.304,16.979,20.961,28.284,28.284
		c9.479,6.14,20.117,10.635,31.506,13.085c6.451,1.388,13.141,2.125,20,2.125V40c-6.859,0-13.549,0.737-20,2.125
		c-11.389,2.45-22.026,6.945-31.506,13.085C82.19,62.533,72.533,72.19,65.21,83.494C59.07,92.974,54.575,103.611,52.125,115
		C50.737,121.451,50,128.14,50,135S50.737,148.549,52.125,155z"/>
	<rect x="330.645" y="405" style="fill:#6A563D;" width="40" height="40"/>
	<polygon style="fill:#4E901E;" points="350.645,405 483.005,405 350.645,140.279 	"/>
	<polygon style="fill:#5EAC24;" points="350.645,140.279 218.284,405 350.645,405 	"/>
	<rect y="445" style="fill:#6DC82A;" width="495" height="40"/>
</g>
</svg>